# xmcd
#
# Track frame offsets:
#	150
#	2142
#	22175
#	43355
#	73860
#	82122
#	104027
#	113692
#	141882
#	166197
#	184817
#	201010
#	229065
#	268535
#	294730
#
# Disc length: 4339 seconds
#
# Revision: 0
# Processed by: cddbd v1.4PL0 Copyright (c) Steve Scherf et al.
# Submitted via: dBpowerAMP V4.0
#
DISCID=e210f10f
DTITLE=Transglobal Underground - Rejoice, Rejoice
DYEAR=1900
DGENRE=Electronic
TTITLE0=A Nice Little Fish Business And Making Money
TTITLE1=Delta Disco
TTITLE2=Thousand Year Heat
TTITLE3=Body Machine
TTITLE4=Imperial Hippy
TTITLE5=Rude Buddah
TTITLE6=Air Giant
TTITLE7=Ali Mullah
TTITLE8=City Of Gold
TTITLE9=Chemnitz
TTITLE10=Shining Iron Face
TTITLE11=Son Of Thingdrum
TTITLE12=Sky Giant
TTITLE13=Bonus Track 14
TTITLE14=Bonus Track 15
EXTD=
EXTT0=
EXTT1=
EXTT2=
EXTT3=
EXTT4=
EXTT5=
EXTT6=
EXTT7=
EXTT8=
EXTT9=
EXTT10=
EXTT11=
EXTT12=
EXTT13=
EXTT14=
PLAYORDER=
